#N canvas 147 328 450 300 12;
#X obj 49 155 osc~;
#X obj 100 38 osc~;
#X floatatom 115 5 5 0 0 0 - - - 0;
#X obj 105 86 *~;
#X obj 48 116 +~;
#X floatatom 38 51 5 0 0 0 - - - 0;
#X floatatom 144 56 5 0 0 0 - - - 0;
#X obj 48 202 dac~;
#X connect 0 0 7 0;
#X connect 0 0 7 1;
#X connect 1 0 3 0;
#X connect 2 0 1 0;
#X connect 3 0 4 1;
#X connect 4 0 0 0;
#X connect 5 0 4 0;
#X connect 6 0 3 1;
